<?xml version="1.0" standalone="no"?>
<!DOCTYPE svg PUBLIC "-//W3C//DTD SVG 20010904//EN"
 "http://www.w3.org/TR/2001/REC-SVG-20010904/DTD/svg10.dtd">
<svg version="1.0" xmlns="http://www.w3.org/2000/svg"
 width="238.000000pt" height="238.000000pt" viewBox="0 0 238.000000 238.000000"
 preserveAspectRatio="xMidYMid meet">
<metadata>
Created by potrace 1.14, written by Peter Selinger 2001-2017
</metadata>
<g transform="translate(0.000000,238.000000) scale(0.100000,-0.100000)"
fill="#000000" stroke="none">
<path d="M867 2333 c-3 -10 -4 -102 -3 -205 0 -120 -3 -188 -9 -188 -7 0 -7
-3 0 -8 6 -4 10 -230 9 -644 l0 -636 27 -4 c14 -2 35 -1 45 2 18 7 19 22 19
256 0 137 4 254 8 261 4 6 4 14 -1 17 -10 6 -9 86 1 103 4 6 4 14 -1 17 -10 6
-9 57 2 74 4 7 3 12 -2 12 -10 0 -10 60 1 77 4 6 4 14 -1 17 -4 2 -7 28 -6 58
2 76 2 78 19 78 8 0 15 4 15 9 0 8 20 17 58 26 15 4 13 65 15 -512 l1 -493 45
-1 c114 -2 182 -1 186 3 9 9 11 138 2 138 -4 0 -5 5 -2 10 10 16 12 110 2 110
-4 0 -5 5 -1 11 5 8 9 490 5 576 -1 7 -20 22 -43 34 -23 12 -48 28 -56 35 -15
15 -21 92 -8 112 4 7 4 12 -1 12 -10 0 -9 133 1 149 4 6 4 11 -1 11 -4 0 -7
37 -6 83 1 61 -2 88 -14 107 -19 29 -64 70 -77 70 -5 0 -6 3 -3 6 4 4 -19 32
-51 63 -31 31 -56 59 -54 64 1 4 -2 7 -7 7 -5 0 -31 23 -59 51 -42 42 -51 47
-55 32z"/>
<path d="M1406 2032 c-2 -4 -4 -33 -3 -65 2 -33 -2 -57 -8 -57 -6 0 -6 -3 1
-8 6 -4 9 -16 7 -27 -5 -25 -5 -31 0 -82 2 -24 0 -43 -5 -43 -5 0 -4 -8 1 -18
6 -10 6 -24 1 -32 -5 -8 -6 -18 -3 -23 10 -16 10 -122 0 -134 -5 -7 -5 -13 -1
-13 5 0 9 -22 9 -50 0 -27 -3 -50 -8 -50 -4 0 -3 -8 2 -18 6 -10 6 -24 1 -32
-5 -8 -6 -18 -4 -22 9 -15 11 -88 2 -88 -5 0 -4 -8 1 -18 6 -10 6 -24 1 -32
-5 -8 -6 -18 -3 -23 10 -16 10 -186 0 -180 -6 4 -7 1 -2 -8 11 -17 13 -299 2
-299 -4 0 -2 -10 4 -22 7 -13 10 -25 8 -28 -2 -3 43 -6 100 -8 59 -1 107 1
110 7 3 5 6 126 6 268 l-1 258 30 28 30 27 -1 228 c-1 125 -4 237 -6 249 -2
12 -16 35 -33 50 -16 16 -29 31 -29 33 -1 13 -33 49 -38 43 -4 -3 -7 1 -7 9 0
9 -7 19 -16 22 -9 4 -14 9 -11 12 3 4 -9 20 -27 38 -19 17 -49 50 -69 74 -20
23 -38 39 -41 34z"/>
<path d="M589 1388 c0 -13 0 -183 0 -378 l0 -355 33 -5 c18 -3 51 -3 73 0 l40
5 0 322 c1 177 4 325 8 329 4 4 2 13 -4 21 -6 7 -8 13 -4 13 4 0 2 7 -5 15 -7
8 -23 15 -35 15 -13 0 -25 7 -29 15 -3 8 -12 12 -20 9 -8 -3 -17 -1 -21 5 -11
19 -35 12 -36 -11z"/>
<path d="M1768 1259 c-1 -8 -2 -148 -3 -311 -1 -294 -1 -298 19 -299 60 -1
142 -1 151 1 6 1 12 2 15 2 3 0 4 79 3 176 -2 97 -3 206 -3 242 l0 65 -62 45
c-34 25 -66 50 -72 55 -36 32 -46 38 -48 24z"/>
<path d="M438 1031 c0 -3 -2 -90 -3 -193 l-2 -188 43 0 c39 0 44 3 45 23 1 12
1 96 1 187 l1 165 -42 6 c-22 3 -42 3 -43 0z"/>
<path d="M1475 620 c-4 -6 -11 -8 -16 -5 -5 4 -10 0 -10 -7 -4 -42 -16 -99
-22 -105 -3 -2 -7 5 -10 17 -3 11 0 20 6 20 7 0 6 4 -2 9 -12 8 -12 12 -3 24
10 12 10 18 -2 29 -12 13 -23 14 -68 9 -4 -1 -6 -26 -5 -57 2 -30 -1 -58 -5
-60 -5 -3 -5 -11 -1 -17 9 -15 9 -49 -1 -65 -4 -6 -3 -12 1 -12 5 0 8 -15 8
-32 0 -31 2 -33 35 -33 31 0 35 3 35 25 -1 14 4 28 10 33 6 4 5 10 -4 16 -9 6
-11 14 -4 26 9 16 11 16 18 -1 4 -11 9 -30 10 -44 1 -14 3 -32 3 -41 3 -22 61
-21 63 1 4 46 -1 86 -12 107 -11 20 -11 26 0 32 7 5 12 11 12 15 -1 3 -1 7 0
9 1 4 1 81 0 94 -1 7 -8 10 -18 6 -11 -4 -14 -3 -9 5 4 7 5 12 2 12 -3 0 -8
-5 -11 -10z"/>
<path d="M1603 619 c-13 -5 -23 -6 -23 -4 0 3 -11 -4 -24 -16 -21 -18 -23 -29
-24 -116 -1 -53 2 -101 7 -107 5 -6 9 -15 8 -19 -3 -12 62 -38 68 -27 3 5 15
7 26 5 20 -4 63 28 52 39 -3 3 -2 11 4 18 11 15 10 155 -2 183 -8 18 -31 39
-45 40 -3 0 -9 3 -15 6 -5 4 -20 3 -32 -2z m19 -196 c-2 -12 -6 -23 -7 -23 -1
0 -5 11 -7 23 -3 14 0 24 7 24 7 0 10 -10 7 -24z"/>
<path d="M446 612 c-15 -3 -17 -18 -15 -138 0 -74 4 -134 7 -135 4 0 15 -2 26
-4 33 -6 42 5 45 52 3 57 6 63 34 63 13 0 29 9 37 20 8 11 17 20 20 20 3 0 6
-33 7 -72 1 -40 2 -76 2 -79 1 -4 95 -5 123 0 4 0 7 12 6 26 -2 22 -15 30 -40
26 -5 0 -8 2 -9 7 0 4 -2 17 -5 30 -4 21 9 28 39 23 5 -1 7 11 5 26 -2 20 -9
28 -23 28 -13 0 -20 6 -19 18 4 51 3 50 19 37 12 -10 16 -9 21 3 14 37 1 51
-51 52 -28 0 -55 -1 -61 -3 -7 -2 -11 -25 -10 -58 1 -29 -2 -54 -6 -54 -4 0
-8 18 -8 39 0 35 -18 69 -38 72 -22 3 -91 3 -106 1z m81 -77 c-5 -37 -17 -42
-17 -7 0 18 5 32 10 32 6 0 9 -11 7 -25z"/>
<path d="M768 610 c-10 -4 -13 -39 -14 -141 l0 -135 28 0 c32 0 40 17 35 74
-2 17 0 38 5 45 7 11 11 -17 11 -75 0 -10 4 -18 8 -18 5 0 9 -6 9 -13 0 -7 9
-13 20 -14 21 -2 21 -2 24 37 0 14 4 30 8 36 4 6 6 21 3 33 -2 12 0 19 4 17 5
-3 8 -30 7 -61 -1 -30 1 -55 4 -56 3 0 15 -2 28 -5 12 -2 25 2 27 9 10 25 11
82 3 94 -5 6 -5 14 1 17 6 4 7 15 1 30 -4 12 -4 29 0 36 5 8 4 22 -1 32 -6 12
-6 18 1 18 12 0 13 10 1 28 -10 16 -68 22 -94 9 -15 -7 -16 -11 -6 -23 9 -11
9 -14 0 -14 -8 0 -10 -8 -6 -19 3 -11 1 -22 -5 -26 -6 -4 -11 4 -11 19 -1 14
-3 31 -4 36 -1 6 -3 16 -4 23 -1 12 -58 17 -83 7z"/>
<path d="M1011 605 c-6 -8 -7 -205 -2 -261 1 -12 55 -13 67 -1 4 4 8 52 9 107
1 62 6 105 13 112 9 9 12 9 12 0 0 -6 7 -9 15 -6 8 4 12 11 8 18 -4 8 -3 8 6
0 7 -6 12 -50 12 -116 1 -58 5 -111 8 -117 9 -14 67 -3 69 12 1 12 9 48 12 57
1 3 1 9 0 15 -1 5 2 6 6 2 5 -5 9 -20 10 -35 2 -60 3 -62 29 -60 14 1 26 5 26
8 5 20 4 270 0 271 -41 9 -51 4 -70 -35 -19 -39 -25 -36 -21 12 1 12 -3 23 -9
23 -38 4 -56 1 -53 -9 1 -7 -5 -12 -14 -12 -8 0 -12 5 -9 10 3 6 -2 11 -12 11
-73 5 -105 3 -112 -6z"/>
<path d="M1731 605 c-6 -8 -8 -211 -2 -261 1 -14 53 -13 64 1 5 7 9 6 15 -1 8
-12 40 -12 60 0 6 4 12 3 12 -2 0 -13 70 -11 71 2 5 55 3 240 -2 255 -6 14
-16 17 -50 15 -39 -2 -64 -19 -53 -35 2 -4 0 -10 -5 -13 -5 -3 -11 7 -14 22
-5 24 -10 27 -47 27 -22 1 -44 -4 -49 -10z m79 -235 c0 -5 -5 -10 -11 -10 -5
0 -7 5 -4 10 3 6 8 10 11 10 2 0 4 -4 4 -10z"/>
<path d="M353 446 c-13 -6 -23 -14 -23 -19 0 -4 -4 -5 -10 -2 -5 3 -10 1 -10
-5 0 -6 -4 -9 -9 -5 -5 3 -12 1 -16 -5 -4 -6 -11 -8 -16 -5 -5 4 -12 -1 -15
-9 -3 -8 -13 -18 -22 -21 -34 -10 -60 -78 -41 -102 7 -7 8 -13 4 -13 -4 0 4
-11 19 -25 15 -14 32 -25 37 -25 6 0 7 -6 3 -12 -4 -7 -4 -10 1 -6 4 4 27 -4
51 -17 24 -14 44 -23 44 -20 0 2 12 0 28 -6 50 -20 168 -49 222 -55 14 -1 25
-3 25 -4 0 -6 119 -23 172 -24 18 -1 33 -3 33 -6 0 -8 46 -9 373 -13 158 -1
287 0 287 3 0 3 21 6 48 6 43 1 106 8 172 19 106 18 143 25 150 30 7 4 58 16
78 17 6 1 12 5 12 10 0 4 3 7 8 7 4 -1 9 0 12 1 3 1 13 3 22 5 30 6 98 39 98
48 0 4 4 6 8 3 10 -6 96 74 101 94 14 56 -8 91 -76 120 -31 13 -61 25 -67 27
-6 1 -25 6 -43 11 -26 8 -31 8 -26 -4 3 -8 10 -14 15 -14 18 0 68 -59 68 -80
0 -29 -52 -77 -92 -86 -5 -1 -11 -3 -15 -4 -5 -1 -11 -2 -15 -1 -5 0 -8 -3 -8
-9 0 -5 -6 -7 -14 -4 -7 3 -20 -1 -27 -8 -8 -7 -25 -14 -39 -15 -14 -1 -36 -4
-50 -6 -14 -3 -45 -7 -70 -11 -25 -3 -63 -9 -85 -13 -22 -3 -58 -7 -80 -9 -22
-2 -71 -6 -110 -9 -92 -8 -543 -9 -620 -1 -33 3 -85 9 -115 12 -86 8 -127 15
-245 39 -46 10 -135 46 -135 56 0 5 -6 9 -13 9 -8 0 -19 11 -24 23 -15 32 9
81 54 111 36 25 26 40 -14 22z"/>
</g>
</svg>
